<svg version="1.2" xmlns="http://www.w3.org/2000/svg" viewBox="0 0 58 58" width="58" height="58">
	<title>icon</title>
	<style>
		.s0 { fill: #262626 } 
	</style>
	<path id="icon" class="s0" d="m43.1 39.4q0.9 0.1 1.9 0.1c-1.6 2.4-3.7 4.4-6.3 6-2.7 1.5-5.5 2.3-8.3 2.5q0.4-0.9 0.9-1.8 2.2-0.3 4.4-1.2 0 0 0-0.1c0.1-0.1 0.3-0.3 0.3-0.3l-0.1-0.2 0.2-0.3c0 0 0.2-0.3 0.3-0.4 0.1-0.1 1.2-1.1 1.5-1.3 0.2-0.1 1.1-0.8 1.5-1.2q0.1 0 0.1-0.1c0.3-0.2 0.8-0.8 1-1.1 0-0.2 0.2-0.5 0.3-0.8q1.2 0.1 2.3 0.2zm-18.6 1.3c-0.1 0 0 0 0.1 0.1q-0.1-0.1-0.1-0.1zm14.3-1.4c0.1 0.1 0.4 0.1 0.6 0 0.2 0 0.4 0 0.7-0.2q-0.4 0-0.7-0.1-0.4 0-0.7-0.1c0.2 0.1 0.3 0.2 0.2 0.3-0.1 0-0.4 0.1-0.1 0.1zm-14.2 1.5q0 0 0 0c0 0 0 0 0 0zm5.9-14.2q0 0 0 0c0 0 0 0 0 0zm6.3 4.2l-0.1 0.1q-0.2 1-0.5 1.9c0.1 0 0.3 0 0.3 0 0 0 0.1-0.1 0.2-0.3 0-0.2 0.1-0.4 0.1-0.4q0 0 0.2 0 0-0.1 0.1-0.3c0-0.3-0.2-0.4-0.2-0.5 0-0.2 0.1-0.5 0.1-0.5zm-0.8 2.8l-0.1 0.3 0.1-0.1q0 0.1 0.1 0.3 0-0.1 0-0.2 0 0 0-0.2 0-0.1-0.1-0.1zm1.6-6q-0.2 0.5-0.3 1.1c0 0 0 0 0.3 0 0.3 0.1 0.1 0.1 0.4 0.1 0.2 0 0.3 0 0.3-0.1 0.1-0.1 0.1 0 0.1-0.3 0-0.3-0.1-0.4-0.2-0.5-0.1-0.1-0.3-0.2-0.6-0.3zm18 8.4c-0.9 3.1-10 3.5-21.7 1.2-3.8 11.2-8.7 19-11.8 18.2-2-0.6-2.9-4.4-2.7-10.1q0.1 0 0.2 0.1c-2.8-1.6-5.2-4-7-7-1.5-2.6-2.3-5.5-2.5-8.3q0.8 0.4 1.7 0.9c2 0.9 4.2 1.8 6.4 2.6h-0.1l0.1 0.1-0.4 0.6-0.3 0.2 0.1 0.1 0.1 0.3h-0.2c0 0 0 0.3 0 0.5 0 0.3 0.4 0.3 0.4 0.3l-0.1 0.1c0 0 0 0.1 0.2 0.4q0.2 0.3 0.3 0.5c0 0.2 0.1 0.7 0.1 0.7 0 0 0.3 0.6 0.5 0.9 0.1 0.2 0.5 0.5 0.6 0.8 0.1 0.2 0.4 0.1 1 0.2 0.5 0.2 0.7 0.4 0.7 0.4 0 0 0.3 0.2 0.5 0.3 0.2 0.1 0.4 0.1 0.9 0.1 0.5 0 0.1 0 0.7 0.1h0.1c0.7 0.1 0.2 0.1 0.8 0.4h0.1q0.2 0.1 0.3 0.1c0 0.2 0 0.4 0 0.5 0 0.1 0.2-0.1 0.3-0.1 0.1 0 0.2 0.1 0.3 0.2q0 0 0.1 0.1c0.2 0 0.3-0.1 0.3-0.1l0.3 0.3 0.2 0.3-0.2 0.5-0.2 0.2c0 0 0-0.3 0-0.5 0-0.1-0.2 0.1-0.2 0.1l-0.2 0.5 0.6 0.6 0.2 0.1 0.4 0.4 0.2 0.7v0.2l0.1 0.3c0 0-0.2 0.1-0.3 0.1q-0.1 0-0.2 0.1c0 0-0.1 0-0.2 0.1-0.1 0.1-0.2 0.2-0.2 0.2 0 0 0.1 0.2 0.2 0.3q0.1 0.1 0.2 0.2 0 0 0.1 0.1 0 0 0.1 0 0 0-0.1 0h0.1l-0.1 0.1c-0.3 0.4-0.5 0.9-0.9 1.4-1.9-0.3-3.7-1-5.5-1.9q0 0 0 0c0.1 3.4 0.7 5.6 2 6 2.4 0.6 6.2-5.7 9.4-15.1q-2-0.4-4.1-1c-14.6-3.9-25.6-10.1-24.6-13.8 0.5-2 4.4-2.9 10.1-2.7q-0.1 0.2-0.2 0.3c1.6-2.8 4-5.3 7-7.1 3.1-1.7 6.4-2.6 9.6-2.5q-0.1 0-0.3 0c2.7-5.1 5.4-8 7.3-7.4 3.8 1 3.6 13.6-0.3 28.3q-0.6 2.1-1.2 4c9.7 1.9 17.1 1.7 17.7-0.6 0.4-1.3-1.2-3-4.2-4.7q0-0.1 0-0.1c0 2-0.4 4-1 5.8-0.6 0-1.2 0-1.7 0q-0.5 0-0.8 0-0.7 0-1.5 0 0.2-0.5 0.2-0.7c0-0.2 0.1-0.4 0.1-0.4l-0.6-0.1v-0.4l-0.3-0.1-0.2 0.5c0 0-0.2 0.2-0.4 0.3-0.2 0.1-0.5 0.2-0.5 0.2l0.1-0.3c-0.1-0.1-0.3 0-0.3 0l-0.1-0.3c0 0-0.1-0.3-0.2-0.3-0.1 0-0.3-0.3-0.3-0.3 0 0-0.1-0.1-0.1-0.3q0 0-0.1 0l0.1-0.1c0 0 0.2-0.3 0.4-0.5 0.1-0.2 0.2 0.2 0.4 0.4 0.2 0.1 0.1 0.4 0.1 0.4 0 0 0.1 0 0.3 0 0.1 0 0.2 0.2 0.2 0.2l0.3 0.1 0.3-0.4c0 0 0-0.2 0.3-0.2 0.2 0 0 0.3 0 0.5 0 0.1 0.1 0 0.6-0.2 0.4-0.2 0.2-0.2 0.6-0.4 0.4-0.2 0.2-0.1 0.3-0.3 0.2-0.1 0.3-0.2 0.3-0.2l0.3 0.2h0.4l0.3-0.3v0.3c0 0-0.2 0.3-0.1 0.5 0.2 0.2 0.2 0.2 0.1 0.4-0.1 0.3 0 0.3 0 0.5 0.1 0.1 0.1 0.1 0.1 0.2 1.3-4.5 0.9-9.5-1.6-13.8-1.2-2.1-2.8-3.9-4.6-5.2q0.1-1 0.1-2c2.4 1.5 4.4 3.7 6 6.3 1.7 3 2.5 6.3 2.5 9.6q0-0.2 0-0.3c5 2.7 7.9 5.4 7.4 7.4zm-22.9-20.8c0 0 0.2-0.1 0.3-0.2 0.1 0 0 0-0.1-0.1-0.1 0-0.2 0.1-0.2 0.1q0 0-0.1 0.1 0 0.1 0 0.1c-0.1 0-0.1-0.1-0.1-0.2 0-0.1-0.4 0-0.4 0 0 0 0.1 0.1 0.1 0.1 0 0 0 0.2 0 0.3 0 0 0 0.1 0.1 0.2 0 0.1 0.2 0.2 0.2 0.2h0.1v-0.1l0.2-0.2 0.1-0.2zm-2.1-1.1c0 0 0-0.2 0.1-0.2 0.1 0 0.2-0.3 0.2-0.3 0 0-0.1-0.1-0.2-0.1-0.1 0-0.3 0-0.3 0l-0.1-0.1c0 0-0.1-0.1-0.3 0-0.1 0.1-0.2-0.1-0.2-0.1v-0.2h-0.2l-0.2-0.1c0 0-0.1-0.1 0-0.1 0.1 0 0.3 0 0.3 0l0.2-0.2-0.1-0.1 0.2-0.2c0 0-0.3-0.2-0.4 0-0.1 0.1-0.3 0.1-0.3 0.1 0 0 0 0-0.1-0.2-0.1-0.2 0.1-0.2-0.2-0.2-0.2 0.1-0.3 0.1-0.4 0.2q-0.1 0.1-0.1 0.1c0 0-0.3 0-0.3 0.1 0 0.1 0.4 0.2 0.4 0.2q0 0 0 0c0.1-0.1 0.2-0.2 0.3-0.1 0.1 0.1 0.1 0.2 0.1 0.2l-0.4 0.2-0.2-0.1h-0.4-0.2l-0.3 0.1c0 0 0 0.2 0 0.3 0 0.1-0.1 0.2-0.1 0.2h-0.3l-0.2 0.1c0 0-0.3 0.1-0.4 0.1q0 0.1 0 0.1c-0.1 0-0.2-0.1-0.2 0.1 0 0.1 0 0.2-0.1 0.2q-0.1 0.1-0.1 0.1c-0.2 0-0.3 0-0.3 0 0 0-0.2 0.1-0.3 0.2-0.1 0.1-0.3 0.2-0.3 0.2l-0.4-0.1-0.6 0.2-0.1 0.3-0.4 0.1c0 0-0.3 0.1-0.3 0.2q0 0.1-0.1 0.1-0.1 0.1-0.1 0.1c0 0-0.2 0.1-0.3 0.2-0.1 0-0.2 0.2-0.2 0.2l-0.1 0.2 0.1 0.2-0.3 0.1v0.1c0.2 0.2 0.3 0.3 0.4 0.2 0.1-0.1 0.1-0.2 0.2-0.2 0.1 0 0.2-0.1 0.3-0.1q0.1-0.1 0.2-0.1c0.1 0 0.3-0.2 0.4-0.2 0.1 0 0.3 0 0.3 0l0.3-0.3 0.3 0.2 0.3-0.1c0 0 0 0.1 0.1 0.2q0 0 0 0c0.2 0 0.3 0 0.3 0 0 0 0.2-0.1 0.3-0.1h0.3 0.1v-0.2l0.3 0.1 0.2 0.2c0 0-0.1 0 0.1 0.1 0.1 0 0.3 0 0.3 0q0.1 0 0.1 0h0.4c0 0 0-0.3-0.1-0.3-0.1 0-0.3-0.1-0.3-0.1l0.2-0.1h0.2l0.1 0.3 0.4-0.2-0.1-0.2 0.1-0.4 0.3 0.1 0.1 0.2c0 0 0 0.1 0.1 0.1 0.1 0 0.2 0 0.2-0.1 0-0.1-0.1-0.2 0-0.2 0.1 0 0.3-0.1 0.3-0.1l0.1-0.1 0.2-0.4 0.2 0.3 0.2-0.1v-0.3l0.5-0.2c0 0 0.3 0 0.4 0 0.1 0 0.1-0.1 0.1-0.1 0 0 0.1-0.1 0-0.1-0.1 0-0.2-0.1-0.2-0.1zm-5 8.1l-0.3 0.1 0.5 0.3h0.3 0.1c0 0 0.2-0.2 0.2-0.4q0-0.2 0.1-0.2 0 0 0.2-0.1c0.1-0.2 0.1-0.2 0.1-0.3-0.1-0.1-0.2-0.1-0.3-0.1q-0.1 0-0.1 0l-0.3 0.2h-0.1l-0.1-0.2h-0.3l-0.2 0.3c0 0 0.2 0 0.2 0 0 0 0 0 0.2 0 0.2 0-0.1 0.2-0.1 0.2l-0.3 0.1zm0.8-5h-0.3c0 0 0 0.3 0 0.5q0 0 0 0c0.1 0.2 0.2 0.3 0.4 0.3q0.1 0 0.3 0c0.2 0 0.3-0.1 0.3-0.1l-0.1 0.1c0 0 0.1-0.1 0.1-0.1h0.1l0.2-0.1c0 0 0.2-0.1 0.2-0.3 0-0.1-0.2-0.1-0.4-0.1-0.2 0-0.2 0-0.2-0.2-0.1-0.2-0.1 0.1-0.1 0.1 0 0-0.1 0-0.2-0.2-0.1-0.2-0.1-0.3-0.1-0.3h-0.1l-0.2 0.1v0.2zm-0.2 6q0 0 0.2 0.3c0.1 0.1 0.1 0 0.2 0 0-0.1 0-0.2 0.1-0.2 0.1 0 0 0.2 0.1 0.2 0.2-0.1 0.4-0.1 0.4-0.1l0.2 0.2c0 0 0.2-0.1 0.2-0.2 0.1-0.1 0.1-0.1 0.2-0.1 0.2 0 0.1 0 0.4-0.2 0.2-0.1-0.1-0.3-0.3-0.4-0.2 0 0-0.2 0-0.2v-0.3q0 0 0-0.2c0-0.2-0.1-0.3-0.1-0.4 0-0.2-0.2-0.1-0.2-0.1v-0.2c0 0 0.4 0 0.5-0.1 0.1 0 0-0.2 0-0.2 0 0-0.3-0.1-0.5-0.2-0.2-0.1 0-0.1 0.3-0.1 0.3 0 0-0.2 0-0.2l-0.2-0.1c0 0-0.2 0.1-0.4 0.2q0 0-0.1 0.1c0 0 0 0.1-0.1 0.2v0.2l0.1 0.2 0.1 0.1c0 0 0 0-0.1 0.1q0 0.1 0 0.2c-0.1 0.1 0 0.2 0 0.2 0 0 0 0.3 0 0.5-0.1 0.1-0.4-0.2-0.4-0.2l-0.1 0.4h-0.1-0.2l0.1 0.2h0.1l0.1 0.1 0.1 0.2-0.2-0.1h-0.2zm-3.3-9.5l-0.3 0.4c0 0 0.3 0 0.4 0 0.1 0 0.2-0.1 0.4-0.2q0.2-0.2 0.4-0.3c0.2-0.1 0.3-0.1 0.3-0.1l0.1 0.2-0.5 0.3 0.6-0.1v-0.1l0.2-0.2 0.3-0.2h0.3l0.2-0.1 0.3-0.1c0 0 0.2-0.2 0.3-0.4 0.1-0.1 0.2 0 0.3 0q0 0 0.1 0c0.1 0 0.1-0.2 0.1-0.3 0-0.1 0.1-0.1 0.2-0.1 0.1 0 0.2 0 0.3 0 0.1-0.1-0.1-0.3-0.3-0.3-0.2-0.1-0.2-0.1-0.2-0.2q-0.1-0.1-0.2-0.1-0.2 0-0.3 0.1c-0.1 0-0.3 0.1-0.3-0.1q0.1 0 0.1-0.1-1 0.2-2 0.6c0.2 0 0.2 0 0.3 0 0.2 0-0.1 0.1-0.1 0.1 0 0-0.4 0.2-0.5 0.2-0.1 0.1 0 0.3 0 0.3q0 0 0 0c0.1 0 0.2 0 0.3-0.1 0.1 0 0.2 0 0.4-0.2q0.2-0.1 0.2-0.1c0.1 0 0.1 0 0.2-0.1 0.2 0 0 0.3 0 0.3l0.4-0.2h0.4 0.1l0.1-0.2-0.2-0.1h-0.2l0.2-0.1c0 0 0.4 0 0.5 0 0.1 0 0 0.2 0 0.2v0.1l-0.2 0.3c0 0-0.2 0-0.3 0-0.2 0-0.3 0.2-0.3 0.2l-0.3 0.2h-0.4-0.1v0.2h-0.4c0 0 0-0.1 0-0.3 0-0.1-0.2 0-0.2 0 0 0 0 0.3-0.2 0.4q0 0-0.1 0c-0.2 0.1-0.4 0.3-0.4 0.3zm4.6-2.2q-0.2 0-0.5 0 0 0 0.1 0c0.1 0.1 0 0.1 0 0.2q0 0.1 0.1 0.1 0.1 0 0.3 0.1c0.3 0 0.1-0.1 0-0.4q0 0 0 0zm-1.1 0.2q0 0 0-0.1 0 0-0.1 0c0.1 0 0.1 0.1 0.1 0.1zm2.4-0.3q0 0 0 0.1c0 0.2 0 0 0.2 0 0 0 0.1-0.1 0.1-0.1q-0.2 0-0.3 0zm-12.3 5.6h0.2l0.4-0.2 0.3 0.1-0.2 0.1c0 0-0.2 0.2-0.2 0.4-0.1 0.1 0.5 0.1 0.5 0.1 0 0 0.1-0.4 0.1-0.6 0-0.2 0.5-0.3 0.5-0.3l0.1-0.3 0.2 0.1c0 0 0.1-0.2 0.1-0.3 0-0.1-0.4-0.1-0.4-0.1l0.4-0.2 0.4 0.1-0.1 0.7h0.4l0.1 0.1c0 0-0.6 0.3-0.7 0.3-0.1 0-0.3 0.3-0.3 0.3l-0.2 0.2c0 0 0.1 0.2 0.2 0.2 0.2 0.1 0.2 0.2 0.2 0.2 0 0 0.2-0.1 0.2-0.2 0-0.2-0.1-0.2-0.1-0.2 0 0 0.2-0.2 0.4-0.4 0.1-0.1 0.8-0.4 0.9-0.6 0.1-0.1 0-0.2 0-0.2l0.3-0.2c0 0 0.1-0.4 0.2-0.5 0-0.1 0.4-0.3 0.8-0.6 0.3-0.2 0.3-0.2 0.7-0.3 0.5-0.1 0.2-0.2 0.1-0.3 0-0.1-0.3 0.2-0.3 0.2l-0.5-0.2c0 0 0.2 0 0.4-0.1 0.2-0.2 0.2-0.1 0.3-0.1 0.2-0.1 0.1-0.2 0.1-0.2h0.3c0 0 0.1-0.2 0.3-0.3 0.1-0.2 0.3-0.5 0.3-0.5 0 0-0.5 0.3-0.6 0.3-0.1 0.1-0.3 0-0.4 0-0.2 0-0.4 0.2-0.6 0.3-0.2 0.1-0.4 0.2-0.4 0.2l-0.3-0.1-0.3 0.1-0.6 0.3q0 0 0.4-0.3c0.2-0.1 0.5-0.3 0.5-0.3l0.4-0.1v-0.2q-0.2 0.2-0.5 0.3-2.3 1.4-4 3.3zm15.8 17.1q0.6-2 1.2-4.2c3.4-12.7 3.8-23.7 0.9-24.4-1.2-0.4-2.9 1.2-4.7 4.2q0 0 0 0c1.9 0 3.9 0.4 5.8 1 0 0.6 0 1.2 0 1.7q0 0 0 0 0 0.5 0 0.8-0.1 2.4-0.4 4.9-0.2-0.1-0.3-0.1c-0.2 0-0.2 0-0.2 0 0 0-0.2-0.1-0.3-0.3 0-0.1-0.2-0.2-0.4-0.3-0.3 0-0.3 0.2-0.3 0.2 0 0-0.2 0.1-0.5 0.1-0.3 0-0.4 0.3-0.4 0.3l-0.2 0.2c0 0-0.2 0.2-0.3 0.2-0.1 0-0.2 0.1-0.2 0.1 0 0-0.1 0.2-0.1 0.4 0 0.1-0.2 0.1-0.2 0.1 0 0-0.1 0.1-0.3 0.1q-0.1 0.1-0.3 0.2c-0.1 0.1-0.1 0.1-0.3 0.3-0.3 0.1-0.4 0.1-0.4 0.1l-0.3 0.1 0.2 0.2h-0.3c0 0 0 0.2 0 0.3 0.1 0.1 0.3 0.2 0.3 0.2 0 0-0.1 0.1-0.3 0.2-0.3 0.1-0.3 0.1-0.2 0.2 0 0.1 0.1 0.3 0.4 0.4 0.4 0.1 0.1-0.1 0.3-0.1 0.2-0.1 0.3-0.2 0.3-0.2 0 0 0.2 0.4 0.2 0.5 0 0.2 0 0.5 0 0.6 0 0.1 0.2 0 0.2 0l-0.2 0.1c0 0 0.1 0.3 0.1 0.4 0 0.1 0.3 0.1 0.3 0 0-0.1 0.2-0.3 0.4-0.3 0.3 0 0.3 0 0.3-0.2 0-0.2 0-0.5 0-0.5l0.3-0.1c0 0 0.2-0.1 0.3-0.2q0-0.1 0.1-0.1 0-0.1-0.1-0.2-0.1-0.1-0.2-0.1c-0.1-0.1-0.1-0.4-0.1-0.6 0-0.1 0-0.1 0-0.2 0-0.1 0.2-0.1 0.3-0.1q0 0 0 0c0.1-0.1 0.3-0.3 0.5-0.4 0.2-0.1-0.1-0.1-0.1-0.1 0 0 0-0.2 0.1-0.4 0-0.1 0.5 0.1 0.5 0.1l0.1 0.2-0.2 0.2-0.2 0.3-0.4 0.5 0.3 0.7c0 0 0.3 0.1 0.4 0.1 0.2 0 0.3-0.1 0.4-0.2 0.1 0 0.3-0.1 0.6-0.1l-0.1 0.5c-0.1 0-0.2-0.1-0.4-0.1-0.3 0-0.3 0.1-0.6 0.2-0.2 0-0.1 0.2-0.1 0.3 0 0.1 0.4 0.3 0.4 0.3l-0.3 0.1c0 0-0.1-0.2-0.4-0.2-0.2 0-0.1 0.3-0.3 0.5-0.1 0.1 0.1 0.5 0.1 0.5 0 0-0.2 0-0.3 0.1q0 0-0.1 0c-0.1 0.1-0.2 0-0.2 0 0 0-0.1-0.1-0.2-0.1-0.1 0-0.3 0.2-0.4 0.2-0.2 0.1-0.6 0-0.6 0l-0.3-0.3-0.2 0.3c0 0-0.2-0.1-0.3-0.2-0.1-0.2 0-0.2 0-0.3 0-0.1-0.1-0.1-0.1-0.1l0.1-0.2 0.3-0.2c0 0 0.1-0.5 0-0.7-0.2-0.2-0.2 0.2-0.2 0.2l-0.5 0.4 0.1 0.6-0.1 0.3h-0.2l-0.2 0.1c0 0-0.1 0-0.3-0.1-0.2-0.1-0.5 0.2-0.5 0.2l-0.1 0.1v0.2h-0.3l-0.2 0.1c0 0-0.1 0-0.3 0-0.1 0 0 0.3 0 0.3 0 0-0.1 0.1-0.2 0.1v-0.1c-0.2 0-0.2 0-0.3 0.1q-0.1 0.1-0.2 0.1-0.1 0-0.1 0l-0.1-0.3c0 0-0.1-0.2-0.2 0-0.1 0.1-0.1 0.2-0.1 0.2l0.1 0.2h-0.2-0.1l-0.3-0.2h-0.1c0 0-0.2-0.1-0.2 0.1 0.1 0.1 0.3 0.3 0.3 0.4q0 0 0 0c0 0.1 0.3 0 0.3 0.2 0 0.1-0.2 0.2-0.2 0.2 0 0 0.1 0.1 0.1 0.3 0 0.2 0 0.4 0 0.5-0.1 0.1-0.2 0.1-0.2 0.2q0 0 0 0.1c-0.1 0.1-0.2 0.1-0.2 0.1 0 0-0.2 0.1-0.3 0.1-0.1-0.1-0.2-0.2-0.4-0.2q0 0 0 0c-0.1 0-0.1 0-0.3-0.1-0.2-0.1-0.3-0.2-0.4-0.2-0.1-0.1-0.2-0.2-0.2-0.2q0 0-0.1-0.1c-0.1 0-0.2 0-0.2 0-0.1 0-0.2 0.1-0.2 0.1 0 0 0 0.2 0 0.3-0.1 0.2 0 0.3-0.1 0.4-0.1 0.1-0.1 0-0.2 0.1 0 0.2 0.1 0.1 0 0.3-0.2 0.1-0.1 0.1-0.2 0.2q0 0 0 0c-0.2 0.1-0.2 0.1-0.3 0.2q-0.1 0.2-0.1 0.4c0 0.2 0.4 0.6 0.4 0.6q0 0 0 0c0.1 0 0.2 0.1 0.2 0.2 0 0.1-0.2 0.1 0 0.2 0.1 0.1 0 0.1 0.1 0.2 0.1 0 0.3 0.1 0.6 0.1 0.3 0.1 0.6 0.2 0.6 0.2l0.2-0.2h0.2 0.1l0.1-0.3h0.3v-0.3c0 0 0-0.3 0.1-0.3 0 0 0.1-0.1 0.3-0.1 0.1-0.1 0.2-0.2 0.2-0.2q0 0 0.2 0c0.1 0 0.3 0.1 0.3 0 0.1-0.1 0.3-0.3 0.3-0.3 0 0 0-0.3 0-0.4q0.1 0 0.1 0c0.1 0 0.5 0 0.6 0.1 0.1 0.1 0.4 0.3 0.5 0.2 0.1 0 0.2-0.1 0.3-0.1l0.1-0.1c0 0 0.1-0.1 0.2-0.2q0 0 0 0c0 0 0.3 0.1 0.4 0.2 0 0.1 0.1 0.4 0 0.5 0 0.2 0.3 0.3 0.4 0.4 0.1 0.1 0.5 0.7 0.6 0.8 0.2 0.2 0.5 0.6 0.5 0.6l0.1 0.3-0.3 0.2c0 0-0.3 0-0.4 0-0.1-0.1-0.2 0-0.2 0 0 0-0.1 0-0.3-0.2-0.1-0.1 0 0.1-0.2 0.2-0.2 0.1 0.2 0.2 0.4 0.3 0.1 0.1 0.2 0.3 0.3 0.4 0 0.1 0.2-0.1 0.2-0.2 0-0.1 0-0.3 0-0.3h0.4l0.2-0.2 0.1-0.1 0.1-0.2-0.1-0.4c0 0 0.2-0.1 0.3-0.1 0.1 0 0.2 0.3 0.2 0.3 0 0 0-0.2 0-0.3-0.1-0.1-0.3-0.3-0.3-0.3 0 0-0.4-0.1-0.5-0.2-0.1 0-0.3-0.4-0.4-0.6-0.1-0.2 0-0.2 0-0.3 0-0.1-0.2-0.2-0.3-0.4-0.1-0.1-0.1-0.3-0.1-0.3 0 0 0.2-0.1 0.4-0.2q0.1 0 0.1-0.1c0.1 0.1 0.2 0.3 0.2 0.5 0 0.1 0.1 0.3 0.2 0.4 0 0.1 0.2 0.2 0.5 0.3 0.3 0 0.2 0.2 0.2 0.2 0 0 0.3 0.3 0.3 0.6 0 0.2 0 0.3 0 0.6 0.1 0.2 0.2 0.3 0.3 0.5 0.1 0.3 0.1 0.3 0.2 0.5q0 0.1 0 0.2-0.2 1-0.5 2c-0.2 0.2-0.3 0.8-0.3 0.8q0 0-0.2 0l-0.3-0.1c-0.2-0.2-0.7-0.3-0.9-0.4-0.2-0.2-0.2-0.5-0.4-0.7-0.2-0.1-0.3-0.1-0.3-0.1 0 0-0.5-0.1-0.6-0.2-0.1-0.1-0.2-0.2-0.3-0.3q-0.1-0.1-0.1-0.1 0 0 0.1-0.1c0.1-0.1 0.2-0.1 0.3-0.1 0.1-0.1-0.1-0.3-0.2-0.6-0.2-0.3 0.4-0.3 0.4-0.5-0.1-0.1-0.3-0.1-0.5-0.2-0.1-0.1-0.5 0-0.5 0l-0.5-0.1c0 0-0.2 0.1-0.3 0.1q-0.1 0-0.2 0c-0.1-0.1-0.2-0.2-0.3-0.3 0-0.2-0.2-0.1-0.3-0.1q-0.1 0-0.2-0.1-0.1-0.1-0.2 0c-0.1 0-0.3 0-0.4 0-0.2 0.1-0.4 0.1-0.5 0.1q-0.1 0-0.1 0c-0.2 0-0.3 0.1-0.5 0.3-0.2 0.1-0.2-0.3-0.2-0.3q0 0-0.2-0.1-0.2 0-0.5-0.1c-0.4-0.2-0.2-0.4-0.2-0.4q0 0-0.2 0.2-0.1 0.1-0.2 0.2c-0.2 0.2-0.3 0.3-0.5 0.3-0.3-0.1-0.4 0-0.6 0.1-0.1 0.1-0.4 0.7-0.5 0.8-3.1-1.1-6.2-2.4-9-3.9q-0.2-0.1-0.5-0.3 0 0 0 0c-0.5-0.2-1-0.5-1.6-0.9 0.4-2 1.1-3.8 2-5.6q0 0 0 0.1c-3.5 0-5.7 0.7-6 1.9-0.8 3 8.9 8.1 21.6 11.5q2.1 0.6 4.2 1zm-3.9-5.4c0 0.1 0 0.3 0 0.3 0 0 0 0.1 0.1 0.1q0.1 0 0.2 0 0.1 0 0.2-0.1c0.2 0 0.1-0.1 0.1-0.2 0-0.2 0-0.3 0.1-0.4 0.1-0.2-0.1-0.3-0.1-0.3 0 0-0.2 0.3-0.3 0.4 0 0.1-0.2 0.2-0.3 0.2zm0.3-0.9c0.1 0 0.3-0.1 0.4-0.2 0-0.1 0 0 0.1-0.2 0-0.2-0.2 0-0.2 0l-0.2 0.2-0.1 0.1v0.1q0 0 0 0z"/>
</svg>