<svg version="1.2" xmlns="http://www.w3.org/2000/svg" viewBox="0 0 47 44" width="47" height="44">
	<title>icon</title>
	<style>
		.s0 { fill: #252525 } 
	</style>
	<path id="icon" class="s0" d="m45.6 8.3l-3.8 15.7c-0.2 0.7-0.8 1.2-1.6 1.2h-20.3c-0.7 0-1.4-0.4-1.6-1.1l-5-15.6c-0.2-0.8-0.1-1.7 0.4-2.4 0.5-0.7 1.3-1.1 2.2-1.1h27.1c0.8 0 1.6 0.4 2.1 1 0.5 0.6 0.7 1.5 0.5 2.3zm1.3 22.3c0 1.4-1.1 2.4-2.5 2.4h-26.2c-3 0-5.7-1.9-6.6-4.8l-7.2-22.4q-0.1-0.1-0.2-0.1h-1.6c-1.4 0-2.5-1.1-2.5-2.4 0-1.4 1.1-2.5 2.5-2.5h1.6c2.2 0 4.1 1.4 4.8 3.6l7.2 22.3c0.3 0.9 1.1 1.5 2 1.5h26.2c1.4 0 2.5 1.1 2.5 2.4zm-23.1 9.1c0 2.1-1.7 3.9-3.8 3.9-2.2 0-3.9-1.8-3.9-3.9 0-2.1 1.7-3.9 3.9-3.9 2.1 0 3.8 1.8 3.8 3.9zm20.4 0c0 2.1-1.8 3.9-3.9 3.9-2.2 0-3.9-1.8-3.9-3.9 0-2.1 1.7-3.9 3.9-3.9 2.1 0 3.9 1.8 3.9 3.9z"/>
</svg>