<svg version="1.2" xmlns="http://www.w3.org/2000/svg" viewBox="0 0 58 58" width="58" height="58">
	<title>icon</title>
	<style>
		.s0 { fill: #262626 } 
	</style>
	<path id="icon" class="s0" d="m47.1 19.5q-0.7-1.1-1.7-2.1l-4.9-4.9q-1-1-2.2-1.8c0.7-1.5 2.1-4.9 2.6-7.9 0.2-1 1.6-1.3 2.2-0.4 1.1 1.4 2.1 3.3 1.8 4.7l7.2-2.9c1-0.4 2 0.6 1.6 1.5l-2.9 7.3c1.4-0.4 3.2 0.7 4.7 1.7 0.8 0.7 0.5 2-0.5 2.2-3 0.5-6.3 1.9-7.9 2.6zm-3.9 15.2l-10.3-5.9 5.2 9-18.9 10.6-6.7-3.6 3.1 5.7-9.2 5.1q-0.7 0.4-1.5 0.4c-2.1 0-3.9-2.4-2.7-4.6l11.8-20.9 8.4 5-5.8-9.5 5.3-9.6c2-3.5 5.7-5.4 9.4-5.4 2.7 0 5.4 1 7.6 3.1l4.8 4.9c4.5 4.5 4.1 11.7-0.5 15.7z"/>
</svg>