<svg display="none"
   xmlns="http://www.w3.org/2000/svg">
   <symbol id="mark" viewBox="0 0 47 44">
      <g>
         <path 
            d="m45.6 8.3l-3.8 15.7c-0.2 0.7-0.8 1.2-1.6 1.2h-20.3c-0.7 0-1.4-0.4-1.6-1.1l-5-15.6c-0.2-0.8-0.1-1.7 0.4-2.4 0.5-0.7 1.3-1.1 2.2-1.1h27.1c0.8 0 1.6 0.4 2.1 1 0.5 0.6 0.7 1.5 0.5 2.3zm1.3 22.3c0 1.4-1.1 2.4-2.5 2.4h-26.2c-3 0-5.7-1.9-6.6-4.8l-7.2-22.4q-0.1-0.1-0.2-0.1h-1.6c-1.4 0-2.5-1.1-2.5-2.4 0-1.4 1.1-2.5 2.5-2.5h1.6c2.2 0 4.1 1.4 4.8 3.6l7.2 22.3c0.3 0.9 1.1 1.5 2 1.5h26.2c1.4 0 2.5 1.1 2.5 2.4zm-23.1 9.1c0 2.1-1.7 3.9-3.8 3.9-2.2 0-3.9-1.8-3.9-3.9 0-2.1 1.7-3.9 3.9-3.9 2.1 0 3.8 1.8 3.8 3.9zm20.4 0c0 2.1-1.8 3.9-3.9 3.9-2.2 0-3.9-1.8-3.9-3.9 0-2.1 1.7-3.9 3.9-3.9 2.1 0 3.9 1.8 3.9 3.9z"/>
      </g>
   </symbol>
   <symbol id="prod" viewBox="0 0 57 51">
      <g>
         <path 
            d="m29.6 20.6q-0.1 0.1-0.2 0.2 0-1.2 0-2.5c0-0.7-0.1-1.4-0.2-2.1 0-0.7-0.2-1.4-0.3-2-0.2-0.7-0.4-1.3-0.6-1.9q-0.4-0.8-0.7-1.6-0.4-0.7-0.8-1.2c-0.2-0.4-0.5-0.6-0.7-0.9-0.4-0.4-0.6-0.7-0.6-0.7 0 0 0.2 0.3 0.6 0.8 0.1 0.2 0.4 0.5 0.6 0.9q0.3 0.5 0.7 1.2 0.3 0.8 0.6 1.6c0.1 0.6 0.2 1.2 0.4 1.9 0 0.6 0.1 1.3 0.2 2 0 0.6 0 1.3 0 2-0.1 1-0.2 2-0.3 3-0.6-0.5-2-2.1-2.7-2.9-0.7-0.8-1.4-1.7-2-2.8-0.6-1-1.1-2.1-1.4-3.2-0.7-2.3-0.8-4.6-0.6-6.5 0.1-1 0.2-1.9 0.1-2.6 0-0.4 0-0.8-0.1-1q0-0.3 0-0.3 0 0 0.3-0.1c0.2-0.1 0.6-0.2 1-0.2 0.9 0 2.2 0.3 3.4 0.9 1.2 0.7 2.4 1.7 3.3 2.9 0.9 1.2 1.6 2.6 2 4 0.5 1.4 0.7 2.9 0.6 4.3-0.1 1.4-0.4 2.8-0.9 3.9-0.5 1.2-1.1 2.2-1.7 2.9zm-5.1 2q0-0.1 0-0.2 0.7 0.8 1.3 1.7 1.1-0.2 2.2-0.2 0.2 0 0.3 0 0.2-0.7 0.3-1.5c0.1-0.4 0.3-1.3 0.5-1.4q0.2-0.1 0.3-0.2-0.1 1.7-0.3 3.2 0.4 0 0.8 0.1 0.6-1 1.4-2.1 0 0.2 0 0.3c0.1 0.2-0.2 0.8-0.4 1.1q-0.2 0.3-0.4 0.7c5.3 0.9 9.7 4.5 11.6 9.4q-0.5-0.3-1-0.7c-2.7-1.7-6.1-1.9-9.9-0.3q-1.9 0.8-3.8 0.2c-2.5-0.7-4.8-0.8-7.1-0.8-1.5 0-2.7 0.6-3.6 1.7q-0.3 0.4-0.3 1c-1.2-0.2-1.9-0.3-2.3-0.3l-0.4-0.1c1.7-5.1 6.1-9 11.5-10q-0.2-0.3-0.3-0.5c-0.2-0.3-0.4-0.9-0.4-1.1zm8-1.9q-0.6 0.6-1.2 1.3 0-0.1 0-0.2c0-0.7 0.1-1.5 0.4-2.4 0.3-0.9 0.8-1.9 1.5-2.7 0.6-0.9 1.5-1.6 2.4-2.2 1-0.6 2.1-1.1 3.2-1.3 1.1-0.2 2.3-0.2 3.3 0 1 0.3 1.9 0.7 2.4 1.2 0.2 0.2 0.4 0.5 0.5 0.6q0.1 0.2 0.1 0.2 0 0-0.2 0.2c-0.1 0.1-0.3 0.3-0.5 0.5-0.4 0.4-0.8 0.9-1.2 1.6-0.9 1.1-2.1 2.4-3.6 3.3-0.8 0.5-1.6 0.9-2.4 1.2-0.9 0.3-1.8 0.5-2.6 0.6-0.7 0.1-2.4 0.3-2.9 0.3q0.6-1 1.3-1.8c0.3-0.5 0.7-0.8 1-1.2 0.4-0.4 0.8-0.7 1.1-1.1q0.6-0.4 1.2-0.8 0.6-0.3 1.1-0.6 0.5-0.2 1-0.4c0.3-0.1 0.6-0.1 0.8-0.2 0.5-0.1 0.7-0.1 0.7-0.1 0 0-0.2 0-0.7 0.1-0.2 0-0.5 0-0.8 0.1q-0.5 0.1-1.1 0.3-0.5 0.3-1.2 0.5-0.6 0.4-1.2 0.8c-0.4 0.4-0.8 0.7-1.2 1-0.4 0.4-0.8 0.7-1.2 1.2zm-21.6-5q-0.2-0.1-0.2-0.1 0 0 0.1-0.3c0.1-0.1 0.3-0.4 0.6-0.6 0.4-0.4 1.3-0.9 2.3-1.1 1.1-0.3 2.2-0.3 3.3 0 1.2 0.2 2.2 0.6 3.2 1.2 1 0.6 1.8 1.4 2.4 2.2 0.7 0.9 1.2 1.8 1.5 2.7 0.3 0.9 0.4 1.8 0.4 2.5q0 0.1 0 0.2-0.6-0.7-1.2-1.4c-0.3-0.4-0.8-0.8-1.1-1.2-0.4-0.3-0.9-0.6-1.3-0.9q-0.6-0.5-1.2-0.8-0.6-0.3-1.2-0.6-0.6-0.1-1-0.3c-0.4-0.1-0.7-0.1-0.9-0.1-0.5-0.1-0.7-0.1-0.7-0.1q0 0 0.7 0.1c0.2 0.1 0.5 0.1 0.8 0.2q0.5 0.2 1 0.4 0.6 0.3 1.2 0.6 0.5 0.4 1.1 0.9c0.4 0.3 0.8 0.6 1.1 1 0.4 0.4 0.7 0.8 1 1.2q0.8 0.9 1.3 1.8c-0.5 0-2.2-0.2-2.9-0.3-0.8-0.1-1.7-0.3-2.5-0.6-0.9-0.3-1.7-0.7-2.5-1.1-1.5-1-2.6-2.2-3.5-3.4-0.5-0.6-0.9-1.2-1.3-1.6-0.2-0.2-0.3-0.4-0.5-0.5zm44.4 33.6h-13.5c-2.2-3.7-5.4-5.4-9.6-5.4-2.4 0-4.8-0.1-7.2 0-2.1 0.1-4.1-0.2-5.9-1.2-0.9-0.5-1.9-0.7-2.8-0.9-2.4-0.5-4.6-1.2-7-1.8-3.2-0.8-4-1.3-6.5-2.2-0.3-0.2-0.8-0.1-1-0.5-0.2-0.5-0.2-1 0.1-1.4 0.6-0.7 1.2-1 2.2-1q0.2 0 0.3 0c1.9-1.1 1.9-0.4 3.8-0.2l5.4 0.7c1-0.1 8.1 1.7 8.5 0.8-2.2 0-4.8-1.7-4.5-2.1 0.6-0.8 1.4-1.1 2.3-1.1 2.3 0 4.4 0.1 6.6 0.8q2.4 0.7 5-0.3c2.7-1.1 5.7-1.5 8.3 0.2 3.2 2.1 6.2 4.5 8.6 7.6 2.7 3.7 4 4.5 6.9 8z"/>

      </g>
   </symbol>
   <symbol id="del" viewBox="0 0 58 58">
      <g>
         <path 
            d="m43.1 39.4q0.9 0.1 1.9 0.1c-1.6 2.4-3.7 4.4-6.3 6-2.7 1.5-5.5 2.3-8.3 2.5q0.4-0.9 0.9-1.8 2.2-0.3 4.4-1.2 0 0 0-0.1c0.1-0.1 0.3-0.3 0.3-0.3l-0.1-0.2 0.2-0.3c0 0 0.2-0.3 0.3-0.4 0.1-0.1 1.2-1.1 1.5-1.3 0.2-0.1 1.1-0.8 1.5-1.2q0.1 0 0.1-0.1c0.3-0.2 0.8-0.8 1-1.1 0-0.2 0.2-0.5 0.3-0.8q1.2 0.1 2.3 0.2zm-18.6 1.3c-0.1 0 0 0 0.1 0.1q-0.1-0.1-0.1-0.1zm14.3-1.4c0.1 0.1 0.4 0.1 0.6 0 0.2 0 0.4 0 0.7-0.2q-0.4 0-0.7-0.1-0.4 0-0.7-0.1c0.2 0.1 0.3 0.2 0.2 0.3-0.1 0-0.4 0.1-0.1 0.1zm-14.2 1.5q0 0 0 0c0 0 0 0 0 0zm5.9-14.2q0 0 0 0c0 0 0 0 0 0zm6.3 4.2l-0.1 0.1q-0.2 1-0.5 1.9c0.1 0 0.3 0 0.3 0 0 0 0.1-0.1 0.2-0.3 0-0.2 0.1-0.4 0.1-0.4q0 0 0.2 0 0-0.1 0.1-0.3c0-0.3-0.2-0.4-0.2-0.5 0-0.2 0.1-0.5 0.1-0.5zm-0.8 2.8l-0.1 0.3 0.1-0.1q0 0.1 0.1 0.3 0-0.1 0-0.2 0 0 0-0.2 0-0.1-0.1-0.1zm1.6-6q-0.2 0.5-0.3 1.1c0 0 0 0 0.3 0 0.3 0.1 0.1 0.1 0.4 0.1 0.2 0 0.3 0 0.3-0.1 0.1-0.1 0.1 0 0.1-0.3 0-0.3-0.1-0.4-0.2-0.5-0.1-0.1-0.3-0.2-0.6-0.3zm18 8.4c-0.9 3.1-10 3.5-21.7 1.2-3.8 11.2-8.7 19-11.8 18.2-2-0.6-2.9-4.4-2.7-10.1q0.1 0 0.2 0.1c-2.8-1.6-5.2-4-7-7-1.5-2.6-2.3-5.5-2.5-8.3q0.8 0.4 1.7 0.9c2 0.9 4.2 1.8 6.4 2.6h-0.1l0.1 0.1-0.4 0.6-0.3 0.2 0.1 0.1 0.1 0.3h-0.2c0 0 0 0.3 0 0.5 0 0.3 0.4 0.3 0.4 0.3l-0.1 0.1c0 0 0 0.1 0.2 0.4q0.2 0.3 0.3 0.5c0 0.2 0.1 0.7 0.1 0.7 0 0 0.3 0.6 0.5 0.9 0.1 0.2 0.5 0.5 0.6 0.8 0.1 0.2 0.4 0.1 1 0.2 0.5 0.2 0.7 0.4 0.7 0.4 0 0 0.3 0.2 0.5 0.3 0.2 0.1 0.4 0.1 0.9 0.1 0.5 0 0.1 0 0.7 0.1h0.1c0.7 0.1 0.2 0.1 0.8 0.4h0.1q0.2 0.1 0.3 0.1c0 0.2 0 0.4 0 0.5 0 0.1 0.2-0.1 0.3-0.1 0.1 0 0.2 0.1 0.3 0.2q0 0 0.1 0.1c0.2 0 0.3-0.1 0.3-0.1l0.3 0.3 0.2 0.3-0.2 0.5-0.2 0.2c0 0 0-0.3 0-0.5 0-0.1-0.2 0.1-0.2 0.1l-0.2 0.5 0.6 0.6 0.2 0.1 0.4 0.4 0.2 0.7v0.2l0.1 0.3c0 0-0.2 0.1-0.3 0.1q-0.1 0-0.2 0.1c0 0-0.1 0-0.2 0.1-0.1 0.1-0.2 0.2-0.2 0.2 0 0 0.1 0.2 0.2 0.3q0.1 0.1 0.2 0.2 0 0 0.1 0.1 0 0 0.1 0 0 0-0.1 0h0.1l-0.1 0.1c-0.3 0.4-0.5 0.9-0.9 1.4-1.9-0.3-3.7-1-5.5-1.9q0 0 0 0c0.1 3.4 0.7 5.6 2 6 2.4 0.6 6.2-5.7 9.4-15.1q-2-0.4-4.1-1c-14.6-3.9-25.6-10.1-24.6-13.8 0.5-2 4.4-2.9 10.1-2.7q-0.1 0.2-0.2 0.3c1.6-2.8 4-5.3 7-7.1 3.1-1.7 6.4-2.6 9.6-2.5q-0.1 0-0.3 0c2.7-5.1 5.4-8 7.3-7.4 3.8 1 3.6 13.6-0.3 28.3q-0.6 2.1-1.2 4c9.7 1.9 17.1 1.7 17.7-0.6 0.4-1.3-1.2-3-4.2-4.7q0-0.1 0-0.1c0 2-0.4 4-1 5.8-0.6 0-1.2 0-1.7 0q-0.5 0-0.8 0-0.7 0-1.5 0 0.2-0.5 0.2-0.7c0-0.2 0.1-0.4 0.1-0.4l-0.6-0.1v-0.4l-0.3-0.1-0.2 0.5c0 0-0.2 0.2-0.4 0.3-0.2 0.1-0.5 0.2-0.5 0.2l0.1-0.3c-0.1-0.1-0.3 0-0.3 0l-0.1-0.3c0 0-0.1-0.3-0.2-0.3-0.1 0-0.3-0.3-0.3-0.3 0 0-0.1-0.1-0.1-0.3q0 0-0.1 0l0.1-0.1c0 0 0.2-0.3 0.4-0.5 0.1-0.2 0.2 0.2 0.4 0.4 0.2 0.1 0.1 0.4 0.1 0.4 0 0 0.1 0 0.3 0 0.1 0 0.2 0.2 0.2 0.2l0.3 0.1 0.3-0.4c0 0 0-0.2 0.3-0.2 0.2 0 0 0.3 0 0.5 0 0.1 0.1 0 0.6-0.2 0.4-0.2 0.2-0.2 0.6-0.4 0.4-0.2 0.2-0.1 0.3-0.3 0.2-0.1 0.3-0.2 0.3-0.2l0.3 0.2h0.4l0.3-0.3v0.3c0 0-0.2 0.3-0.1 0.5 0.2 0.2 0.2 0.2 0.1 0.4-0.1 0.3 0 0.3 0 0.5 0.1 0.1 0.1 0.1 0.1 0.2 1.3-4.5 0.9-9.5-1.6-13.8-1.2-2.1-2.8-3.9-4.6-5.2q0.1-1 0.1-2c2.4 1.5 4.4 3.7 6 6.3 1.7 3 2.5 6.3 2.5 9.6q0-0.2 0-0.3c5 2.7 7.9 5.4 7.4 7.4zm-22.9-20.8c0 0 0.2-0.1 0.3-0.2 0.1 0 0 0-0.1-0.1-0.1 0-0.2 0.1-0.2 0.1q0 0-0.1 0.1 0 0.1 0 0.1c-0.1 0-0.1-0.1-0.1-0.2 0-0.1-0.4 0-0.4 0 0 0 0.1 0.1 0.1 0.1 0 0 0 0.2 0 0.3 0 0 0 0.1 0.1 0.2 0 0.1 0.2 0.2 0.2 0.2h0.1v-0.1l0.2-0.2 0.1-0.2zm-2.1-1.1c0 0 0-0.2 0.1-0.2 0.1 0 0.2-0.3 0.2-0.3 0 0-0.1-0.1-0.2-0.1-0.1 0-0.3 0-0.3 0l-0.1-0.1c0 0-0.1-0.1-0.3 0-0.1 0.1-0.2-0.1-0.2-0.1v-0.2h-0.2l-0.2-0.1c0 0-0.1-0.1 0-0.1 0.1 0 0.3 0 0.3 0l0.2-0.2-0.1-0.1 0.2-0.2c0 0-0.3-0.2-0.4 0-0.1 0.1-0.3 0.1-0.3 0.1 0 0 0 0-0.1-0.2-0.1-0.2 0.1-0.2-0.2-0.2-0.2 0.1-0.3 0.1-0.4 0.2q-0.1 0.1-0.1 0.1c0 0-0.3 0-0.3 0.1 0 0.1 0.4 0.2 0.4 0.2q0 0 0 0c0.1-0.1 0.2-0.2 0.3-0.1 0.1 0.1 0.1 0.2 0.1 0.2l-0.4 0.2-0.2-0.1h-0.4-0.2l-0.3 0.1c0 0 0 0.2 0 0.3 0 0.1-0.1 0.2-0.1 0.2h-0.3l-0.2 0.1c0 0-0.3 0.1-0.4 0.1q0 0.1 0 0.1c-0.1 0-0.2-0.1-0.2 0.1 0 0.1 0 0.2-0.1 0.2q-0.1 0.1-0.1 0.1c-0.2 0-0.3 0-0.3 0 0 0-0.2 0.1-0.3 0.2-0.1 0.1-0.3 0.2-0.3 0.2l-0.4-0.1-0.6 0.2-0.1 0.3-0.4 0.1c0 0-0.3 0.1-0.3 0.2q0 0.1-0.1 0.1-0.1 0.1-0.1 0.1c0 0-0.2 0.1-0.3 0.2-0.1 0-0.2 0.2-0.2 0.2l-0.1 0.2 0.1 0.2-0.3 0.1v0.1c0.2 0.2 0.3 0.3 0.4 0.2 0.1-0.1 0.1-0.2 0.2-0.2 0.1 0 0.2-0.1 0.3-0.1q0.1-0.1 0.2-0.1c0.1 0 0.3-0.2 0.4-0.2 0.1 0 0.3 0 0.3 0l0.3-0.3 0.3 0.2 0.3-0.1c0 0 0 0.1 0.1 0.2q0 0 0 0c0.2 0 0.3 0 0.3 0 0 0 0.2-0.1 0.3-0.1h0.3 0.1v-0.2l0.3 0.1 0.2 0.2c0 0-0.1 0 0.1 0.1 0.1 0 0.3 0 0.3 0q0.1 0 0.1 0h0.4c0 0 0-0.3-0.1-0.3-0.1 0-0.3-0.1-0.3-0.1l0.2-0.1h0.2l0.1 0.3 0.4-0.2-0.1-0.2 0.1-0.4 0.3 0.1 0.1 0.2c0 0 0 0.1 0.1 0.1 0.1 0 0.2 0 0.2-0.1 0-0.1-0.1-0.2 0-0.2 0.1 0 0.3-0.1 0.3-0.1l0.1-0.1 0.2-0.4 0.2 0.3 0.2-0.1v-0.3l0.5-0.2c0 0 0.3 0 0.4 0 0.1 0 0.1-0.1 0.1-0.1 0 0 0.1-0.1 0-0.1-0.1 0-0.2-0.1-0.2-0.1zm-5 8.1l-0.3 0.1 0.5 0.3h0.3 0.1c0 0 0.2-0.2 0.2-0.4q0-0.2 0.1-0.2 0 0 0.2-0.1c0.1-0.2 0.1-0.2 0.1-0.3-0.1-0.1-0.2-0.1-0.3-0.1q-0.1 0-0.1 0l-0.3 0.2h-0.1l-0.1-0.2h-0.3l-0.2 0.3c0 0 0.2 0 0.2 0 0 0 0 0 0.2 0 0.2 0-0.1 0.2-0.1 0.2l-0.3 0.1zm0.8-5h-0.3c0 0 0 0.3 0 0.5q0 0 0 0c0.1 0.2 0.2 0.3 0.4 0.3q0.1 0 0.3 0c0.2 0 0.3-0.1 0.3-0.1l-0.1 0.1c0 0 0.1-0.1 0.1-0.1h0.1l0.2-0.1c0 0 0.2-0.1 0.2-0.3 0-0.1-0.2-0.1-0.4-0.1-0.2 0-0.2 0-0.2-0.2-0.1-0.2-0.1 0.1-0.1 0.1 0 0-0.1 0-0.2-0.2-0.1-0.2-0.1-0.3-0.1-0.3h-0.1l-0.2 0.1v0.2zm-0.2 6q0 0 0.2 0.3c0.1 0.1 0.1 0 0.2 0 0-0.1 0-0.2 0.1-0.2 0.1 0 0 0.2 0.1 0.2 0.2-0.1 0.4-0.1 0.4-0.1l0.2 0.2c0 0 0.2-0.1 0.2-0.2 0.1-0.1 0.1-0.1 0.2-0.1 0.2 0 0.1 0 0.4-0.2 0.2-0.1-0.1-0.3-0.3-0.4-0.2 0 0-0.2 0-0.2v-0.3q0 0 0-0.2c0-0.2-0.1-0.3-0.1-0.4 0-0.2-0.2-0.1-0.2-0.1v-0.2c0 0 0.4 0 0.5-0.1 0.1 0 0-0.2 0-0.2 0 0-0.3-0.1-0.5-0.2-0.2-0.1 0-0.1 0.3-0.1 0.3 0 0-0.2 0-0.2l-0.2-0.1c0 0-0.2 0.1-0.4 0.2q0 0-0.1 0.1c0 0 0 0.1-0.1 0.2v0.2l0.1 0.2 0.1 0.1c0 0 0 0-0.1 0.1q0 0.1 0 0.2c-0.1 0.1 0 0.2 0 0.2 0 0 0 0.3 0 0.5-0.1 0.1-0.4-0.2-0.4-0.2l-0.1 0.4h-0.1-0.2l0.1 0.2h0.1l0.1 0.1 0.1 0.2-0.2-0.1h-0.2zm-3.3-9.5l-0.3 0.4c0 0 0.3 0 0.4 0 0.1 0 0.2-0.1 0.4-0.2q0.2-0.2 0.4-0.3c0.2-0.1 0.3-0.1 0.3-0.1l0.1 0.2-0.5 0.3 0.6-0.1v-0.1l0.2-0.2 0.3-0.2h0.3l0.2-0.1 0.3-0.1c0 0 0.2-0.2 0.3-0.4 0.1-0.1 0.2 0 0.3 0q0 0 0.1 0c0.1 0 0.1-0.2 0.1-0.3 0-0.1 0.1-0.1 0.2-0.1 0.1 0 0.2 0 0.3 0 0.1-0.1-0.1-0.3-0.3-0.3-0.2-0.1-0.2-0.1-0.2-0.2q-0.1-0.1-0.2-0.1-0.2 0-0.3 0.1c-0.1 0-0.3 0.1-0.3-0.1q0.1 0 0.1-0.1-1 0.2-2 0.6c0.2 0 0.2 0 0.3 0 0.2 0-0.1 0.1-0.1 0.1 0 0-0.4 0.2-0.5 0.2-0.1 0.1 0 0.3 0 0.3q0 0 0 0c0.1 0 0.2 0 0.3-0.1 0.1 0 0.2 0 0.4-0.2q0.2-0.1 0.2-0.1c0.1 0 0.1 0 0.2-0.1 0.2 0 0 0.3 0 0.3l0.4-0.2h0.4 0.1l0.1-0.2-0.2-0.1h-0.2l0.2-0.1c0 0 0.4 0 0.5 0 0.1 0 0 0.2 0 0.2v0.1l-0.2 0.3c0 0-0.2 0-0.3 0-0.2 0-0.3 0.2-0.3 0.2l-0.3 0.2h-0.4-0.1v0.2h-0.4c0 0 0-0.1 0-0.3 0-0.1-0.2 0-0.2 0 0 0 0 0.3-0.2 0.4q0 0-0.1 0c-0.2 0.1-0.4 0.3-0.4 0.3zm4.6-2.2q-0.2 0-0.5 0 0 0 0.1 0c0.1 0.1 0 0.1 0 0.2q0 0.1 0.1 0.1 0.1 0 0.3 0.1c0.3 0 0.1-0.1 0-0.4q0 0 0 0zm-1.1 0.2q0 0 0-0.1 0 0-0.1 0c0.1 0 0.1 0.1 0.1 0.1zm2.4-0.3q0 0 0 0.1c0 0.2 0 0 0.2 0 0 0 0.1-0.1 0.1-0.1q-0.2 0-0.3 0zm-12.3 5.6h0.2l0.4-0.2 0.3 0.1-0.2 0.1c0 0-0.2 0.2-0.2 0.4-0.1 0.1 0.5 0.1 0.5 0.1 0 0 0.1-0.4 0.1-0.6 0-0.2 0.5-0.3 0.5-0.3l0.1-0.3 0.2 0.1c0 0 0.1-0.2 0.1-0.3 0-0.1-0.4-0.1-0.4-0.1l0.4-0.2 0.4 0.1-0.1 0.7h0.4l0.1 0.1c0 0-0.6 0.3-0.7 0.3-0.1 0-0.3 0.3-0.3 0.3l-0.2 0.2c0 0 0.1 0.2 0.2 0.2 0.2 0.1 0.2 0.2 0.2 0.2 0 0 0.2-0.1 0.2-0.2 0-0.2-0.1-0.2-0.1-0.2 0 0 0.2-0.2 0.4-0.4 0.1-0.1 0.8-0.4 0.9-0.6 0.1-0.1 0-0.2 0-0.2l0.3-0.2c0 0 0.1-0.4 0.2-0.5 0-0.1 0.4-0.3 0.8-0.6 0.3-0.2 0.3-0.2 0.7-0.3 0.5-0.1 0.2-0.2 0.1-0.3 0-0.1-0.3 0.2-0.3 0.2l-0.5-0.2c0 0 0.2 0 0.4-0.1 0.2-0.2 0.2-0.1 0.3-0.1 0.2-0.1 0.1-0.2 0.1-0.2h0.3c0 0 0.1-0.2 0.3-0.3 0.1-0.2 0.3-0.5 0.3-0.5 0 0-0.5 0.3-0.6 0.3-0.1 0.1-0.3 0-0.4 0-0.2 0-0.4 0.2-0.6 0.3-0.2 0.1-0.4 0.2-0.4 0.2l-0.3-0.1-0.3 0.1-0.6 0.3q0 0 0.4-0.3c0.2-0.1 0.5-0.3 0.5-0.3l0.4-0.1v-0.2q-0.2 0.2-0.5 0.3-2.3 1.4-4 3.3zm15.8 17.1q0.6-2 1.2-4.2c3.4-12.7 3.8-23.7 0.9-24.4-1.2-0.4-2.9 1.2-4.7 4.2q0 0 0 0c1.9 0 3.9 0.4 5.8 1 0 0.6 0 1.2 0 1.7q0 0 0 0 0 0.5 0 0.8-0.1 2.4-0.4 4.9-0.2-0.1-0.3-0.1c-0.2 0-0.2 0-0.2 0 0 0-0.2-0.1-0.3-0.3 0-0.1-0.2-0.2-0.4-0.3-0.3 0-0.3 0.2-0.3 0.2 0 0-0.2 0.1-0.5 0.1-0.3 0-0.4 0.3-0.4 0.3l-0.2 0.2c0 0-0.2 0.2-0.3 0.2-0.1 0-0.2 0.1-0.2 0.1 0 0-0.1 0.2-0.1 0.4 0 0.1-0.2 0.1-0.2 0.1 0 0-0.1 0.1-0.3 0.1q-0.1 0.1-0.3 0.2c-0.1 0.1-0.1 0.1-0.3 0.3-0.3 0.1-0.4 0.1-0.4 0.1l-0.3 0.1 0.2 0.2h-0.3c0 0 0 0.2 0 0.3 0.1 0.1 0.3 0.2 0.3 0.2 0 0-0.1 0.1-0.3 0.2-0.3 0.1-0.3 0.1-0.2 0.2 0 0.1 0.1 0.3 0.4 0.4 0.4 0.1 0.1-0.1 0.3-0.1 0.2-0.1 0.3-0.2 0.3-0.2 0 0 0.2 0.4 0.2 0.5 0 0.2 0 0.5 0 0.6 0 0.1 0.2 0 0.2 0l-0.2 0.1c0 0 0.1 0.3 0.1 0.4 0 0.1 0.3 0.1 0.3 0 0-0.1 0.2-0.3 0.4-0.3 0.3 0 0.3 0 0.3-0.2 0-0.2 0-0.5 0-0.5l0.3-0.1c0 0 0.2-0.1 0.3-0.2q0-0.1 0.1-0.1 0-0.1-0.1-0.2-0.1-0.1-0.2-0.1c-0.1-0.1-0.1-0.4-0.1-0.6 0-0.1 0-0.1 0-0.2 0-0.1 0.2-0.1 0.3-0.1q0 0 0 0c0.1-0.1 0.3-0.3 0.5-0.4 0.2-0.1-0.1-0.1-0.1-0.1 0 0 0-0.2 0.1-0.4 0-0.1 0.5 0.1 0.5 0.1l0.1 0.2-0.2 0.2-0.2 0.3-0.4 0.5 0.3 0.7c0 0 0.3 0.1 0.4 0.1 0.2 0 0.3-0.1 0.4-0.2 0.1 0 0.3-0.1 0.6-0.1l-0.1 0.5c-0.1 0-0.2-0.1-0.4-0.1-0.3 0-0.3 0.1-0.6 0.2-0.2 0-0.1 0.2-0.1 0.3 0 0.1 0.4 0.3 0.4 0.3l-0.3 0.1c0 0-0.1-0.2-0.4-0.2-0.2 0-0.1 0.3-0.3 0.5-0.1 0.1 0.1 0.5 0.1 0.5 0 0-0.2 0-0.3 0.1q0 0-0.1 0c-0.1 0.1-0.2 0-0.2 0 0 0-0.1-0.1-0.2-0.1-0.1 0-0.3 0.2-0.4 0.2-0.2 0.1-0.6 0-0.6 0l-0.3-0.3-0.2 0.3c0 0-0.2-0.1-0.3-0.2-0.1-0.2 0-0.2 0-0.3 0-0.1-0.1-0.1-0.1-0.1l0.1-0.2 0.3-0.2c0 0 0.1-0.5 0-0.7-0.2-0.2-0.2 0.2-0.2 0.2l-0.5 0.4 0.1 0.6-0.1 0.3h-0.2l-0.2 0.1c0 0-0.1 0-0.3-0.1-0.2-0.1-0.5 0.2-0.5 0.2l-0.1 0.1v0.2h-0.3l-0.2 0.1c0 0-0.1 0-0.3 0-0.1 0 0 0.3 0 0.3 0 0-0.1 0.1-0.2 0.1v-0.1c-0.2 0-0.2 0-0.3 0.1q-0.1 0.1-0.2 0.1-0.1 0-0.1 0l-0.1-0.3c0 0-0.1-0.2-0.2 0-0.1 0.1-0.1 0.2-0.1 0.2l0.1 0.2h-0.2-0.1l-0.3-0.2h-0.1c0 0-0.2-0.1-0.2 0.1 0.1 0.1 0.3 0.3 0.3 0.4q0 0 0 0c0 0.1 0.3 0 0.3 0.2 0 0.1-0.2 0.2-0.2 0.2 0 0 0.1 0.1 0.1 0.3 0 0.2 0 0.4 0 0.5-0.1 0.1-0.2 0.1-0.2 0.2q0 0 0 0.1c-0.1 0.1-0.2 0.1-0.2 0.1 0 0-0.2 0.1-0.3 0.1-0.1-0.1-0.2-0.2-0.4-0.2q0 0 0 0c-0.1 0-0.1 0-0.3-0.1-0.2-0.1-0.3-0.2-0.4-0.2-0.1-0.1-0.2-0.2-0.2-0.2q0 0-0.1-0.1c-0.1 0-0.2 0-0.2 0-0.1 0-0.2 0.1-0.2 0.1 0 0 0 0.2 0 0.3-0.1 0.2 0 0.3-0.1 0.4-0.1 0.1-0.1 0-0.2 0.1 0 0.2 0.1 0.1 0 0.3-0.2 0.1-0.1 0.1-0.2 0.2q0 0 0 0c-0.2 0.1-0.2 0.1-0.3 0.2q-0.1 0.2-0.1 0.4c0 0.2 0.4 0.6 0.4 0.6q0 0 0 0c0.1 0 0.2 0.1 0.2 0.2 0 0.1-0.2 0.1 0 0.2 0.1 0.1 0 0.1 0.1 0.2 0.1 0 0.3 0.1 0.6 0.1 0.3 0.1 0.6 0.2 0.6 0.2l0.2-0.2h0.2 0.1l0.1-0.3h0.3v-0.3c0 0 0-0.3 0.1-0.3 0 0 0.1-0.1 0.3-0.1 0.1-0.1 0.2-0.2 0.2-0.2q0 0 0.2 0c0.1 0 0.3 0.1 0.3 0 0.1-0.1 0.3-0.3 0.3-0.3 0 0 0-0.3 0-0.4q0.1 0 0.1 0c0.1 0 0.5 0 0.6 0.1 0.1 0.1 0.4 0.3 0.5 0.2 0.1 0 0.2-0.1 0.3-0.1l0.1-0.1c0 0 0.1-0.1 0.2-0.2q0 0 0 0c0 0 0.3 0.1 0.4 0.2 0 0.1 0.1 0.4 0 0.5 0 0.2 0.3 0.3 0.4 0.4 0.1 0.1 0.5 0.7 0.6 0.8 0.2 0.2 0.5 0.6 0.5 0.6l0.1 0.3-0.3 0.2c0 0-0.3 0-0.4 0-0.1-0.1-0.2 0-0.2 0 0 0-0.1 0-0.3-0.2-0.1-0.1 0 0.1-0.2 0.2-0.2 0.1 0.2 0.2 0.4 0.3 0.1 0.1 0.2 0.3 0.3 0.4 0 0.1 0.2-0.1 0.2-0.2 0-0.1 0-0.3 0-0.3h0.4l0.2-0.2 0.1-0.1 0.1-0.2-0.1-0.4c0 0 0.2-0.1 0.3-0.1 0.1 0 0.2 0.3 0.2 0.3 0 0 0-0.2 0-0.3-0.1-0.1-0.3-0.3-0.3-0.3 0 0-0.4-0.1-0.5-0.2-0.1 0-0.3-0.4-0.4-0.6-0.1-0.2 0-0.2 0-0.3 0-0.1-0.2-0.2-0.3-0.4-0.1-0.1-0.1-0.3-0.1-0.3 0 0 0.2-0.1 0.4-0.2q0.1 0 0.1-0.1c0.1 0.1 0.2 0.3 0.2 0.5 0 0.1 0.1 0.3 0.2 0.4 0 0.1 0.2 0.2 0.5 0.3 0.3 0 0.2 0.2 0.2 0.2 0 0 0.3 0.3 0.3 0.6 0 0.2 0 0.3 0 0.6 0.1 0.2 0.2 0.3 0.3 0.5 0.1 0.3 0.1 0.3 0.2 0.5q0 0.1 0 0.2-0.2 1-0.5 2c-0.2 0.2-0.3 0.8-0.3 0.8q0 0-0.2 0l-0.3-0.1c-0.2-0.2-0.7-0.3-0.9-0.4-0.2-0.2-0.2-0.5-0.4-0.7-0.2-0.1-0.3-0.1-0.3-0.1 0 0-0.5-0.1-0.6-0.2-0.1-0.1-0.2-0.2-0.3-0.3q-0.1-0.1-0.1-0.1 0 0 0.1-0.1c0.1-0.1 0.2-0.1 0.3-0.1 0.1-0.1-0.1-0.3-0.2-0.6-0.2-0.3 0.4-0.3 0.4-0.5-0.1-0.1-0.3-0.1-0.5-0.2-0.1-0.1-0.5 0-0.5 0l-0.5-0.1c0 0-0.2 0.1-0.3 0.1q-0.1 0-0.2 0c-0.1-0.1-0.2-0.2-0.3-0.3 0-0.2-0.2-0.1-0.3-0.1q-0.1 0-0.2-0.1-0.1-0.1-0.2 0c-0.1 0-0.3 0-0.4 0-0.2 0.1-0.4 0.1-0.5 0.1q-0.1 0-0.1 0c-0.2 0-0.3 0.1-0.5 0.3-0.2 0.1-0.2-0.3-0.2-0.3q0 0-0.2-0.1-0.2 0-0.5-0.1c-0.4-0.2-0.2-0.4-0.2-0.4q0 0-0.2 0.2-0.1 0.1-0.2 0.2c-0.2 0.2-0.3 0.3-0.5 0.3-0.3-0.1-0.4 0-0.6 0.1-0.1 0.1-0.4 0.7-0.5 0.8-3.1-1.1-6.2-2.4-9-3.9q-0.2-0.1-0.5-0.3 0 0 0 0c-0.5-0.2-1-0.5-1.6-0.9 0.4-2 1.1-3.8 2-5.6q0 0 0 0.1c-3.5 0-5.7 0.7-6 1.9-0.8 3 8.9 8.1 21.6 11.5q2.1 0.6 4.2 1zm-3.9-5.4c0 0.1 0 0.3 0 0.3 0 0 0 0.1 0.1 0.1q0.1 0 0.2 0 0.1 0 0.2-0.1c0.2 0 0.1-0.1 0.1-0.2 0-0.2 0-0.3 0.1-0.4 0.1-0.2-0.1-0.3-0.1-0.3 0 0-0.2 0.3-0.3 0.4 0 0.1-0.2 0.2-0.3 0.2zm0.3-0.9c0.1 0 0.3-0.1 0.4-0.2 0-0.1 0 0 0.1-0.2 0-0.2-0.2 0-0.2 0l-0.2 0.2-0.1 0.1v0.1q0 0 0 0z" />
      </g>
   </symbol>
   <symbol id="organ" viewBox="0 0 58 58">
      <g>
         <path
            d="m47.1 19.5q-0.7-1.1-1.7-2.1l-4.9-4.9q-1-1-2.2-1.8c0.7-1.5 2.1-4.9 2.6-7.9 0.2-1 1.6-1.3 2.2-0.4 1.1 1.4 2.1 3.3 1.8 4.7l7.2-2.9c1-0.4 2 0.6 1.6 1.5l-2.9 7.3c1.4-0.4 3.2 0.7 4.7 1.7 0.8 0.7 0.5 2-0.5 2.2-3 0.5-6.3 1.9-7.9 2.6zm-3.9 15.2l-10.3-5.9 5.2 9-18.9 10.6-6.7-3.6 3.1 5.7-9.2 5.1q-0.7 0.4-1.5 0.4c-2.1 0-3.9-2.4-2.7-4.6l11.8-20.9 8.4 5-5.8-9.5 5.3-9.6c2-3.5 5.7-5.4 9.4-5.4 2.7 0 5.4 1 7.6 3.1l4.8 4.9c4.5 4.5 4.1 11.7-0.5 15.7z"/>
      </g>
   </symbol>

</svg>